<svg width="114" height="58" viewBox="0 0 114 58" fill="none" xmlns="http://www.w3.org/2000/svg">
<path d="M90.0173 14.5063H79.0762V31.5786H90.0173V14.5063Z" fill="white"/>
<path d="M58.5706 38.3104L57.693 41.6904H47.0566L56.6538 14.5322H67.7882L77.6761 41.6904H66.9994L65.9522 38.3104H58.5706Z" fill="white"/>
<path d="M44.7169 18.6422C40.6868 14.7379 34.7884 14.5322 32.4597 14.5322H23.748V23.9069L27.2613 24.7531V32.3588L23.748 33.3633V41.665H34.9526C39.9788 41.665 43.2201 39.5085 44.8811 37.8397C47.9151 34.8712 48.4563 31.249 48.4563 28.4413C48.4563 23.4403 46.5018 20.3901 44.7169 18.6422Z" fill="white"/>
<path d="M0.849432 57.4963H1.9119V54.1331H0.849432V57.4963ZM0 53.6553H2.12223L2.48897 54.0856V57.5306L2.12223 57.9742H0V57.4963H0.275055V54.1331H0V53.6553Z" fill="white"/>
<path d="M13.4048 56.8555V57.9742H11.0195V57.494H11.292V54.1328H11.0195V53.6553H13.4048V54.7739H12.9267V54.1328H11.8609V55.5443H12.6836V55.2752H13.1671V56.2909H12.6836V56.0218H11.8609V57.494H12.9267V56.8555H13.4048Z" fill="white"/>
<path d="M23.3898 57.2275L24.1488 54.1339H23.8779V53.6553H24.9937V54.1339H24.7228L23.7492 57.9996H23.0384L22.0783 54.1339H21.8047V53.6553H22.9231V54.1339H22.6495L23.3898 57.2275Z" fill="white"/>
<path d="M35.7002 56.8555V57.9742H33.2891V57.494H33.5645V54.1328H33.2891V53.6553H35.7002V54.7739H35.2169V54.1328H34.1396V55.5443H34.9712V55.2752H35.4626V56.2909H34.9712V56.0218H34.1396V57.494H35.2169V56.8555H35.7002Z" fill="white"/>
<path d="M45.0544 57.494H46.0818V56.8529H46.5644V57.9742H44.2051V57.494H44.4801V54.1328H44.2051V53.6553H45.3295V54.1328H45.0544V57.494Z" fill="white"/>
<path d="M55.6435 57.4937H56.9044V54.1305H55.6435V57.4937ZM57.4795 57.5307L57.1123 57.9742H55.4356L55.0684 57.5254V54.0909L55.4356 53.6553H57.1123L57.4795 54.0856V57.5307Z" fill="white"/>
<path d="M66.8518 55.7857H67.8516V54.1357H66.8518V55.7857ZM67.1245 57.4963V57.9742H66.0098V57.4963H66.2824V54.1331H66.0098V53.6553H68.0574L68.4209 54.0856V55.82L68.0574 56.2635H66.8518V57.4963H67.1245Z" fill="white"/>
<path d="M78.5437 57.0982L77.748 54.671V57.494H78.0232V57.9742H76.8984V57.494H77.1735V54.1328H76.8984V53.6553H77.98L78.568 55.5153L79.1614 53.6553H80.2429V54.1328H79.9678V57.494H80.2429V57.9742H79.1182V57.494H79.3933V54.671L78.5977 57.0982H78.5437Z" fill="white"/>
<path d="M91.0552 56.8555V57.9742H88.6699V57.494H88.9424V54.1328H88.6699V53.6553H91.0552V54.7739H90.5771V54.1328H89.5113V55.5443H90.334V55.2752H90.8174V56.2909H90.334V56.0218H89.5113V57.494H90.5771V56.8555H91.0552Z" fill="white"/>
<path d="M101.844 57.9996L100.41 54.6151V57.5025H100.686V57.9837H99.5586V57.5025H99.8344V54.1339H99.5586V53.6553H100.581L101.844 56.6035V54.1339H101.568V53.6553H102.696V54.1339H102.42V57.9996H101.844Z" fill="white"/>
<path d="M113.051 57.494V57.9742H111.93V57.494H112.204V54.1328H111.526V54.7739H111.045V53.6553H113.923V54.7739H113.441V54.1328H112.777V57.494H113.051Z" fill="white"/>
<path fill-rule="evenodd" clip-rule="evenodd" d="M0.285156 0H114V49.3114H113.598V0.393929H0.687139V49.3114H0.285156V0Z" fill="white"/>
<path d="M90.3818 37.0028C90.3818 39.6613 87.7712 41.817 84.5497 41.817C81.3281 41.817 78.7148 39.6613 78.7148 37.0028C78.7148 34.3442 81.3255 32.1885 84.5497 32.1885C87.7685 32.1885 90.3818 34.3442 90.3818 37.0028Z" fill="white"/>
</svg>
