<svg width="24" height="24" viewBox="0 0 24 24" fill="none" xmlns="http://www.w3.org/2000/svg">
<path d="M12.0007 22.6668C10.2325 22.6668 8.53685 21.9644 7.28661 20.7142C6.03636 19.464 5.33398 17.7683 5.33398 16.0002V8.00016C5.33398 6.23205 6.03636 4.53636 7.28661 3.28612C8.53685 2.03587 10.2325 1.3335 12.0007 1.3335C13.7688 1.3335 15.4645 2.03587 16.7147 3.28612C17.9649 4.53636 18.6673 6.23205 18.6673 8.00016V16.0002C18.6673 16.8756 18.4949 17.7425 18.1598 18.5514C17.8248 19.3602 17.3338 20.0951 16.7147 20.7142C16.0956 21.3333 15.3607 21.8243 14.5519 22.1594C13.743 22.4944 12.8761 22.6668 12.0007 22.6668ZM12.0007 2.66683C10.5862 2.66683 9.22961 3.22873 8.22941 4.22893C7.22922 5.22912 6.66732 6.58567 6.66732 8.00016V16.0002C6.66732 17.4146 7.22922 18.7712 8.22941 19.7714C9.22961 20.7716 10.5862 21.3335 12.0007 21.3335C13.4151 21.3335 14.7717 20.7716 15.7719 19.7714C16.7721 18.7712 17.334 17.4146 17.334 16.0002V8.00016C17.334 6.58567 16.7721 5.22912 15.7719 4.22893C14.7717 3.22873 13.4151 2.66683 12.0007 2.66683Z" fill="white" fill-opacity="0.8"/>
<path d="M12.0007 10C11.8238 10 11.6543 9.92976 11.5292 9.80474C11.4042 9.67971 11.334 9.51014 11.334 9.33333V6.66667C11.334 6.48986 11.4042 6.32029 11.5292 6.19526C11.6543 6.07024 11.8238 6 12.0007 6C12.1775 6 12.347 6.07024 12.4721 6.19526C12.5971 6.32029 12.6673 6.48986 12.6673 6.66667V9.33333C12.6673 9.51014 12.5971 9.67971 12.4721 9.80474C12.347 9.92976 12.1775 10 12.0007 10Z" fill="white" fill-opacity="0.8"/>
</svg>
